<svg id="Layer_1" data-name="Layer 1" xmlns="http://www.w3.org/2000/svg" xmlns:xlink="http://www.w3.org/1999/xlink" viewBox="0 0 564 600"><defs><style>.cls-1{fill:none;}.cls-2{clip-path:url(#clip-path);}.cls-3{opacity:0.5;}.cls-4{fill:#161616;}.cls-5,.cls-6{isolation:isolate;}.cls-6{font-size:13.31px;fill:#c6c6c6;font-family:IBMPlexMono, IBM Plex Mono;}.cls-7{fill:#4589ff;}.cls-8{fill:#a6c8ff;fill-rule:evenodd;}.cls-9{clip-path:url(#clip-path-2);}</style><clipPath id="clip-path"><rect class="cls-1" x="-0.27" y="0.2" width="564.34" height="600"/></clipPath><clipPath id="clip-path-2"><rect class="cls-1" x="682.73" y="0.2" width="320.27" height="300.1"/></clipPath></defs><title>Artboard 10</title><g class="cls-2"><g class="cls-3"><path class="cls-4" d="M-114.47,582.37q-24.71,0-49.48-2.28a533.39,533.39,0,0,1-204.11-61.56A533.42,533.42,0,0,1-532.31,382.61a535.09,535.09,0,0,1-96-182A535.18,535.18,0,0,1-649.13-4.19,533.55,533.55,0,0,1-587.58-208.3,533.59,533.59,0,0,1-451.65-372.55a535.09,535.09,0,0,1,182-96A535.18,535.18,0,0,1-64.85-489.37a533.55,533.55,0,0,1,204.11,61.55A533.59,533.59,0,0,1,303.51-291.89a535.09,535.09,0,0,1,96,182A535.18,535.18,0,0,1,420.33,94.91,533.39,533.39,0,0,1,358.77,299,533.42,533.42,0,0,1,222.85,463.27a535.09,535.09,0,0,1-182,96A535.91,535.91,0,0,1-114.47,582.37Zm.15-1071a532.73,532.73,0,0,0-154.43,22.93,532.27,532.27,0,0,0-181,95.5A530.61,530.61,0,0,0-584.93-206.89a530.46,530.46,0,0,0-61.21,203,532,532,0,0,0,20.66,203.62,532.27,532.27,0,0,0,95.5,181A530.61,530.61,0,0,0-366.65,515.89a530.59,530.59,0,0,0,203,61.21A532,532,0,0,0,40,556.44a532.27,532.27,0,0,0,181-95.5A530.61,530.61,0,0,0,356.13,297.61a530.64,530.64,0,0,0,61.21-203A532,532,0,0,0,396.68-109a532.12,532.12,0,0,0-95.51-181A530.45,530.45,0,0,0,137.85-425.17a530.64,530.64,0,0,0-203-61.21Q-89.76-488.64-114.32-488.65Z"/><path class="cls-4" d="M-123.43,565q-21.13,0-42.24-1.66c-70-5.54-135.94-24.65-195.93-56.81S-474,430-517.36,374.75a544.37,544.37,0,0,1-92.9-179.64,544.53,544.53,0,0,1-22.07-201c5.53-70,24.65-135.94,56.81-195.93S-499-314.24-443.79-357.6a544.32,544.32,0,0,1,179.63-92.9,544.58,544.58,0,0,1,201-22.07c70,5.54,135.94,24.65,195.93,56.81S245.2-339.28,288.56-284a544.32,544.32,0,0,1,92.9,179.63,544.37,544.37,0,0,1,22.06,201c-5.53,70-24.64,135.94-56.8,195.93S270.24,405,215,448.32a544.37,544.37,0,0,1-179.64,92.9A547.82,547.82,0,0,1-123.43,565Zm18.06-1036.18a545.08,545.08,0,0,0-157.92,23.6,541.55,541.55,0,0,0-178.65,92.39c-54.92,43.1-99,95.19-130.94,154.82s-51,125.15-56.46,194.75a541.62,541.62,0,0,0,22,199.92C-587.54,260-556.46,320.07-515,372.89c43.11,54.92,95.2,99,154.83,131s125.15,51,194.75,56.45A541.4,541.4,0,0,0,34.49,538.35C100.21,518.5,160.31,487.42,213.13,446c54.92-43.1,99-95.19,130.94-154.82S395,166,400.53,96.39a541.4,541.4,0,0,0-21.94-199.92c-19.85-65.72-50.93-125.82-92.39-178.64-43.1-54.93-95.19-99-154.82-130.95s-125.15-51-194.75-56.46Q-84.35-471.23-105.37-471.23Z"/><path class="cls-4" d="M-133.11,547.65c-77.69,0-154.33-16.93-222-53.22h0C-586,370.68-687.21,35.45-563.47-195.38s459-332.07,689.81-208.33,332.07,459,208.32,689.81C247.21,449.23,54.1,547.65-133.11,547.65Zm-220.61-55.87C-244.47,550.35-105,560.73,29,520.26S273.45,393.93,332,284.68,401,35.93,360.5-98.06s-126.33-244.43-235.58-303S-123.83-470-257.83-429.54-502.26-303.21-560.82-194-629.77,54.79-589.3,188.78s126.33,244.43,235.58,303Z"/><path class="cls-4" d="M-143.28,530.32q-13,0-25.83-.64c-66.87-3.36-127.28-19.28-179.57-47.31s-99-69.53-138.79-123.36c-37.39-50.54-67.34-111-86.62-174.82S-601.88,53.44-598.72-9.35c3.36-66.87,19.28-127.28,47.31-179.57s69.53-99,123.36-138.79c50.54-37.39,111-67.34,174.82-86.62S-122.48-442.12-59.69-439c66.87,3.36,127.28,19.28,179.57,47.31s99,69.53,138.79,123.36c37.39,50.54,67.34,111,86.61,174.82s27.8,130.75,24.64,193.54c-3.36,66.87-19.28,127.28-47.31,179.57s-69.53,99-123.36,138.79c-50.55,37.39-111,67.34-174.82,86.62C-30.71,521.7-88.18,530.32-143.28,530.32ZM-85.52-436.6c-54.82,0-112,8.58-166.84,25.15-63.5,19.17-123.64,49-173.91,86.15-53.47,39.55-94.68,85.91-122.5,137.8s-43.61,111.88-47,178.3c-3.14,62.45,5.34,129,24.51,192.52s49,123.64,86.16,173.91c39.55,53.46,85.91,94.68,137.8,122.5s111.88,43.61,178.3,46.95c62.45,3.14,129-5.33,192.52-24.51s123.63-49,173.91-86.15c53.46-39.55,94.68-85.91,122.5-137.8s43.61-111.88,46.95-178.3c3.15-62.45-5.33-129-24.51-192.52s-49-123.64-86.15-173.91C216.71-320,170.35-361.19,118.46-389S6.58-432.62-59.84-436Q-72.57-436.6-85.52-436.6Z"/><path class="cls-4" d="M-153.15,513.18c-5.94,0-11.82-.1-17.68-.3-65.27-2.27-122.93-16.59-171.39-42.57s-92.3-66.07-130.31-119.17c-35.53-49.63-64.39-109.25-83.47-172.41s-28-128.8-25.92-189.8c2.27-65.27,16.59-122.93,42.56-171.38s66.08-92.31,119.18-130.32c49.63-35.53,109.25-64.39,172.41-83.47s128.8-28,189.8-25.92C7.29-419.89,65-405.57,113.41-379.6s92.3,66.08,130.32,119.18C279.26-210.79,308.12-151.17,327.2-88s28,128.8,25.92,189.8c-2.27,65.26-16.59,122.93-42.57,171.38s-66.07,92.3-119.17,130.32C141.75,439,82.13,467.88,19,487-38.13,504.2-97.26,513.18-153.15,513.18Zm77.5-932.64c-55.61,0-114.43,8.93-171.25,26.09-62.85,19-122.17,47.7-171.54,83-52.72,37.74-92.51,81.24-118.27,129.29S-576.67-75.77-578.92-11c-2.11,60.68,6.81,126,25.79,188.83s47.7,122.16,83,171.54c37.74,52.72,81.24,92.51,129.29,118.27s105.27,40,170.07,42.21c60.69,2.11,126-6.81,188.83-25.8s122.16-47.69,171.54-83c52.72-37.74,92.51-81.24,118.27-129.29s40-105.27,42.21-170.07c2.11-60.68-6.81-126-25.8-188.83s-47.69-122.17-83-171.54C203.54-311.4,160-351.19,112-376.95s-105.27-40-170.07-42.21C-63.89-419.36-69.76-419.46-75.65-419.46Z"/><path class="cls-4" d="M-162.79,496.18c-66,0-125.94-12.71-173-37.92-86.73-46.5-162.31-153-202.16-285S-573.8-89.26-527.3-176s153-162.31,285-202.16S20.22-414,107-367.54s162.3,153,202.16,285S345,180,298.5,266.71s-153,162.3-285,202.16C-46.91,487.11-107,496.18-162.79,496.18Zm-171.55-40.56c86,46.12,215.76,50,347,10.38S249.73,351.34,295.86,265.29s50-215.75,10.38-347S191.58-318.77,105.53-364.9s-215.75-50-347-10.38S-478.53-260.62-524.66-174.57s-50,215.75-10.38,347S-420.38,409.49-334.34,455.62Z"/><path class="cls-4" d="M-174,479.27h-.3c-61.13,0-114.74-11.47-155-33.06s-79.48-59.92-113.35-110.81c-31.82-47.81-58.51-105.77-77.18-167.6S-548.35,42.93-548.31-14.5c0-61.14,11.47-114.75,33.06-155S-455.34-249-404.44-282.88c47.81-31.82,105.76-58.51,167.6-77.18S-112-388.55-54.54-388.55c61.14,0,114.74,11.47,155,33.06S180-295.57,213.84-244.68c31.82,47.81,58.5,105.77,77.18,167.6s28.53,124.87,28.49,182.3c0,61.14-11.47,114.74-33.07,155s-59.91,79.48-110.8,113.35C127.83,405.42,69.87,432.11,8,450.78S-116.62,479.27-174,479.27ZM-54.84-385.55c-57.06,0-119.68,9.8-181.13,28.36S-355.21-312-402.78-280.38c-50.48,33.6-88.46,72.42-109.82,112.27s-32.68,93-32.71,153.61c0,57.14,9.77,119.88,28.36,181.43s45.15,119.24,76.81,166.81c33.6,50.48,72.42,88.46,112.27,109.82s93,32.68,153.61,32.71h.29c57.07,0,119.69-9.8,181.14-28.36S126.41,402.76,174,371.1c50.48-33.6,88.46-72.42,109.82-112.27s32.67-93,32.71-153.61c0-57.14-9.77-119.88-28.36-181.43S243-195.45,211.34-243c-33.6-50.48-72.42-88.46-112.27-109.82s-93-32.68-153.61-32.71Z"/><path class="cls-4" d="M-184.78,462.55c-55.71,0-103.3-9.77-138-28.4-36.56-19.6-72.82-56.47-104.87-106.62-30-46.9-55.56-104-74-165.19S-530.5,39.42-531.51-16.22c-1.08-59.5,8.72-110.28,28.32-146.85s56.47-72.82,106.62-104.86c46.9-30,104-55.57,165.19-74s122.91-28.77,178.56-29.78C6.68-372.83,57.46-363,94-343.43S166.85-287,198.89-236.81c30,46.9,55.57,104,74,165.19S301.7,51.3,302.71,106.94c1.07,59.5-8.72,110.28-28.32,146.85s-56.47,72.82-106.62,104.86c-46.9,30-104,55.57-165.19,74S-120.34,461.46-176,462.47C-178.93,462.52-181.87,462.55-184.78,462.55Zm-136.63-31c36.11,19.36,86.39,29,145.38,28,55.37-1,116.83-11.26,177.74-29.65s117.77-43.88,164.44-73.69c49.72-31.77,86.24-67.65,105.6-103.76s29-86.39,28-145.38c-1-55.37-11.26-116.83-29.65-177.74s-43.88-117.77-73.69-164.44c-31.77-49.72-67.65-86.24-103.76-105.6s-86.39-29-145.38-28c-55.37,1-116.83,11.26-177.74,29.65s-117.77,43.88-164.44,73.69c-49.72,31.77-86.24,67.65-105.6,103.76s-29,86.38-28,145.38c1,55.37,11.25,116.83,29.65,177.74S-455,279.24-425.17,325.91C-393.4,375.63-357.52,412.15-321.41,431.51Z"/><path class="cls-4" d="M-195.36,446c-49.29,0-91.19-7.94-121-23.92-64.17-34.4-128.26-136-167.28-265.23s-41.89-249.31-7.5-313.47,136-128.26,265.22-167.28,249.32-41.89,313.48-7.5,128.26,136,167.28,265.23,41.89,249.31,7.5,313.47S126.31,375.58-2.89,414.6C-72,435.49-138.6,446-195.36,446Zm-119.59-26.57c63.49,34,182.73,31.08,311.2-7.72S225.66,309.39,259.69,245.91,290.77,63.18,252-65.29,149.63-294.7,86.15-328.73-96.58-359.81-225-321-454.46-218.67-488.49-155.19-519.57,27.54-480.77,156-378.43,385.42-314.95,419.45Z"/><path class="cls-4" d="M-207.14,429.71c-43.37,0-78.55-6.69-102.76-19.67-29.18-15.64-59.58-49.62-87.91-98.27-26.25-45.07-49.67-100.52-67.74-160.36s-29.26-119-32.35-171c-3.33-56.19,3.17-101.32,18.82-130.5s49.62-59.58,98.27-87.91c45.07-26.25,100.52-49.67,160.36-67.74s119-29.26,171-32.35C6.79-341.48,51.92-335,81.1-319.32S140.68-269.7,169-221C195.25-176,218.68-120.53,236.75-60.69S266,58.3,269.1,110.36c3.33,56.19-3.18,101.32-18.82,130.5S200.66,300.44,152,328.77C106.94,355,51.49,378.44-8.35,396.51s-119,29.26-171,32.35Q-193.77,429.72-207.14,429.71ZM-21.28-336c-159,0-403.2,90.35-455.16,187.27C-491.82-120-498.21-75.46-494.9-19.82c3.07,51.83,14.21,110.75,32.22,170.36s41.33,114.85,67.46,159.72c28.05,48.17,58,81.75,86.73,97.14s73.27,21.76,128.91,18.46c51.83-3.07,110.74-14.21,170.36-32.22s114.85-41.33,159.72-67.46c48.17-28.05,81.75-58,97.14-86.74,65.29-121.8-46.15-490.82-168-556.12C54.79-330,19.55-336-21.28-336Z"/><path class="cls-4" d="M-218.37,413.67c-36.69,0-65.71-5.31-85.07-15.68h0c-25.52-13.68-53-46.22-79.43-94.1-24.39-44.15-46.72-98.77-64.6-157.94s-29.49-117-33.62-167.3c-4.48-54.51.38-96.81,14.06-122.33s46.22-53,94.1-79.43c44.15-24.39,98.77-46.72,157.94-64.59s117-29.5,167.3-33.63c54.51-4.48,96.81.38,122.33,14.06s53,46.22,79.43,94.1C178.46-169,200.79-114.4,218.66-55.23s29.5,117,33.63,167.3c4.48,54.51-.39,96.81-14.06,122.33s-46.22,53-94.1,79.43C100,338.22,45.36,360.55-13.81,378.42s-117,29.5-167.3,33.63C-194.26,413.13-206.71,413.67-218.37,413.67Zm208-733.62q-17.41,0-37.11,1.61c-50.06,4.11-107.7,15.7-166.67,33.51s-113.39,40.06-157.36,64.35c-47.37,26.16-79.5,53.21-92.9,78.22S-482.53-75.53-478.1-21.6c4.11,50.07,15.7,107.71,33.51,166.68s40.06,113.39,64.35,157.36c26.16,47.37,53.21,79.5,78.22,92.9s66.73,18.15,120.66,13.72c50.07-4.11,107.71-15.7,166.68-33.51S98.71,335.49,142.68,311.2C190.05,285,222.18,258,235.58,233s18.15-66.73,13.72-120.67c-4.11-50.06-15.7-107.7-33.51-166.67s-40.06-113.39-64.35-157.36c-26.17-47.37-53.21-79.5-78.22-92.9C54.29-314.77,25.78-319.95-10.34-319.95Z"/><path class="cls-4" d="M-229.85,398c-27.72,0-51.22-3.57-67.13-12.1-27.63-14.81-53.83-57.07-70.95-89.92-22.21-42.62-44-97.86-61.45-155.53-29-96-53.1-226.38-25.59-277.7C-440.16-164.85-397.9-191-365-208.17c42.62-22.21,97.85-44,155.52-61.45,96-29,226.39-53.1,277.71-25.59,27.63,14.81,53.83,57.07,70.94,89.92,22.21,42.62,44,97.85,61.45,155.52,29,96,53.11,226.39,25.6,277.71-14.81,27.63-57.07,53.83-89.92,70.94-42.62,22.21-97.86,44-155.53,61.45C-85.54,380.35-168.14,398-229.85,398ZM.62-304.23a439.74,439.74,0,0,0-46.29,2.69c-47.61,5.07-105.49,17.43-163,34.8s-112.54,39.11-155,61.24c-46.56,24.26-77.22,48.36-88.66,69.7s-14.54,60.21-9,112.43c5.07,47.61,17.43,105.49,34.8,163s39.11,112.54,61.23,155c24.27,46.57,48.37,77.23,69.71,88.67s60.21,14.54,112.43,9c47.61-5.07,105.49-17.43,163-34.8s112.54-39.11,155-61.24c46.57-24.26,77.23-48.36,88.67-69.7s14.54-60.21,9-112.43c-5.07-47.61-17.43-105.49-34.8-163s-39.11-112.54-61.24-155c-24.26-46.57-48.37-77.23-69.7-88.67C52.31-300.31,29.83-304.23.62-304.23Z"/><path class="cls-4" d="M-239.65,382.58c-20.16,0-38.83-2.25-50.86-8.7-23.05-12.36-46.7-53.45-62.47-85.75C-373.36,246.41-394.07,192-411.29,135S-441.36,21.27-447.48-24.76c-4.74-35.63-7.79-82.95,4.56-106s53.45-46.7,85.75-62.47c41.72-20.38,96.1-41.09,153.11-58.31S-90.31-281.6-44.28-287.72c35.63-4.74,83-7.79,106,4.56s46.69,53.45,62.47,85.75c20.38,41.72,41.09,96.1,58.31,153.11s30.07,113.75,36.19,159.78c4.73,35.63,7.79,83-4.56,106s-53.46,46.69-85.76,62.47C86.65,304.32,32.27,325-24.74,342.25s-113.76,30.07-159.78,36.19C-201.54,380.7-221.22,382.58-239.65,382.58Zm-49.45-11.35c39.34,21.09,160.68-.8,263.49-31.86s216-80,237.08-119.31-.81-160.68-31.86-263.5-80-216-119.31-237.07-160.68.8-263.5,31.85-216,80-237.07,119.32.8,160.68,31.85,263.49S-328.43,350.15-289.1,371.23Z"/><path class="cls-4" d="M-248.91,367.62c-15.53,0-27.67-1.79-35.14-5.8-62.11-33.3-180.11-424-146.81-486.11S-6.86-304.4,55.25-271.1C87.4-253.87,133.23-142,164.4-38.84S219.29,182.86,202.06,215,73,293-30.2,324.16C-109.4,348.08-197.64,367.62-248.91,367.62Zm-33.72-8.44c27.17,14.57,128.27-.66,251.56-37.89s215.92-80.52,230.49-107.7S198.76,85.32,161.52-38,81-253.89,53.83-268.46s-128.27.66-251.56,37.89S-413.65-150-428.22-122.87s.66,128.27,37.89,251.56S-309.81,344.61-282.63,359.18Z"/><path class="cls-4" d="M-255.74,353.29q-15.25,0-21.85-3.52h0c-11.19-6-26.5-32-45.51-77.42-16.72-39.91-35.19-92.56-52-148.25S-405.69,14.33-413.86-28.16c-9.28-48.31-10.95-78.48-4.95-89.67s32.05-26.5,77.42-45.51c39.91-16.72,92.56-35.19,148.25-52S-83.37-245.93-40.88-254.1c48.31-9.28,78.48-11,89.67-5S75.29-227,94.3-181.63c16.72,39.91,35.19,92.56,52,148.25s30.58,109.77,38.74,152.26c9.29,48.31,11,78.48,5,89.67s-32,26.5-77.42,45.51c-39.91,16.72-92.56,35.19-148.25,52s-109.77,30.58-152.26,38.75C-217.3,350.46-240,353.29-255.74,353.29Zm-20.43-6.17c7.27,3.9,28.38,6.15,87.68-5.25,42.4-8.15,96.36-21.88,152-38.67s108.14-35.23,148-51.91c55.7-23.33,72-36.89,75.93-44.16C211.55,162,92.49-232.21,47.37-256.4s-439.34,94.86-463.53,140S-321.3,322.93-276.17,347.12Z"/><path class="cls-4" d="M-260.44,339.35c-5,0-8.61-.52-10.69-1.64C-287.39,329-326,221.4-357,118.63s-58.45-213.73-49.73-230,116.31-54.85,219.08-85.89S26.07-255.71,42.33-247,97.18-130.68,128.22-27.91s58.45,213.73,49.73,230S61.64,256.94-41.13,288C-130.73,315-226.58,339.35-260.44,339.35Zm292-585.09c-29.08,0-113.48,19.66-218.41,51.35-120.86,36.5-210.21,71.22-217.3,84.44s13.46,106.86,50,227.72,71.22,210.21,84.44,217.3c1.74.93,4.89,1.38,9.3,1.39,29.08,0,113.49-19.66,218.42-51.35,120.85-36.5,210.21-71.23,217.3-84.44,16-29.78-104.62-429-134.4-445C39.17-245.28,36-245.74,31.6-245.74Z"/><path class="cls-4" d="M-261.37,326.15a7.8,7.8,0,0,1-3.3-.49c-11.7-6.28-67.89-191.4-74.26-212.49S-401-93.2-394.7-104.9s191.4-67.9,212.49-74.27,206.37-62,218.07-55.77,67.9,191.4,74.27,212.49,62,206.37,55.77,218.07-191.4,67.9-212.49,74.27C-66.56,275.92-233.7,326.15-261.37,326.15ZM32.29-232.6c-15.71,0-104.11,23.22-213.63,56.3C-298.12-141-388.71-109.73-392-103.49s20.72,99,56,215.79S-269.49,319.67-263.25,323s99-20.72,215.79-56,207.37-66.57,210.71-72.81-20.72-99-56-215.79S40.69-228.95,34.45-232.29A5.11,5.11,0,0,0,32.29-232.6Z"/><path class="cls-4" d="M-258.5,314.15-383.19-98.74,29.69-223.43l124.7,412.88ZM-379.45-96.73l123,407.14,407.14-123-123-407.14Z"/></g></g><g id="What-is-QC_-HANDOFF-Round-1---April-6-Delivery" data-name="What-is-QC?-HANDOFF-Round-1---April-6-Delivery"><g id="Even-for-simple-mole" class="cls-5"><text class="cls-6" transform="translate(123.7 491.7)">Even for simple molecules like </text><text class="cls-6" transform="translate(123.7 513.1)">caffeine, the number of quantum </text><text class="cls-6" transform="translate(123.7 534.51)">states in the system can be enormous</text></g><g id="CaffieneMolecule"><path id="Combined-Shape" class="cls-7" d="M287.2,408.77a22.91,22.91,0,0,0-4-.7v-45.9l-1.6.92a2.39,2.39,0,0,1-2.4,0l-1.6-.92v46.1a22.09,22.09,0,0,0-4,1v-49.4L237.35,339a22.6,22.6,0,0,0,2-4.4l41.09,23.66,61-35.12V252.07l-41.64-24a22.75,22.75,0,0,0,2.47-4.11l42,24.18,50.22-16.36a22.3,22.3,0,0,0,1.48,4.56l-49.37,16.09v72l47.31,15.42a22.5,22.5,0,0,0-1.24,4.64l-49.58-16.15a2.57,2.57,0,0,1-.62-.31L287.2,359.87Zm140.23-80.43,28.89-39.87L427,247.93a22,22,0,0,0,4.12-2.48l30.14,41.61a2.4,2.4,0,0,1,0,2.82l-29.94,41.33A23.56,23.56,0,0,0,427.43,328.34Zm-1.94,40.73,12,27.29-3.66,1.6-12.09-27.49A23.09,23.09,0,0,0,425.49,369.07ZM219,304.4c-.59,0-1.18-.07-1.78-.07a23.25,23.25,0,0,0-3,.19V257.18l-42.68-31.36a20.53,20.53,0,0,0,3.66-2.27l39,28.67V250.9a2.41,2.41,0,0,1,1.2-2.08l2.06-1.18-38.35-28.18a19.64,19.64,0,0,0,2-3.48l40.13,29.48,38.59-22.21a22.86,22.86,0,0,0,2.33,4.19L219,252.28Zm-20.91,36.13-31,23.28-2.41-3.18L196.15,337A22.78,22.78,0,0,0,198.13,340.53ZM278.4,191.27v-50.1h4v50c-.39,0-.79,0-1.19,0A23.69,23.69,0,0,0,278.4,191.27ZM332,256.88h4V319h-4ZM418.84,250l26.82,36.4-3.23,2.36-28.68-38.94a23.45,23.45,0,0,0,3.37.25C417.7,250.11,418.28,250.08,418.84,250Z"/><path id="O" class="cls-8" d="M280,438.65c-5.56,0-9.24-3.78-9.24-10.94s3.68-10.93,9.24-10.93,9.23,3.78,9.23,10.93S285.63,438.65,280,438.65Zm0-3.54c3,0,5-2.15,5-5.76v-3.27c0-3.61-1.94-5.76-5-5.76s-5,2.15-5,5.76v3.27C275.06,433,277,435.11,280,435.11Z"/><path id="O-Copy" class="cls-8" d="M163.31,218.57c-5.55,0-9.23-3.78-9.23-10.93s3.68-10.94,9.23-10.94,9.24,3.78,9.24,10.94S168.9,218.57,163.31,218.57Zm0-3.54c3,0,5-2.15,5-5.76V206c0-3.61-2-5.76-5-5.76s-5,2.15-5,5.76v3.27C158.33,212.88,160.28,215,163.31,215Z"/><polygon id="N" class="cls-8" points="221.81 336.22 215.43 325.38 213.24 320.98 213.15 320.98 213.15 336.22 209.35 336.22 209.35 315.07 213.76 315.07 220.14 325.92 222.33 330.31 222.42 330.31 222.42 315.07 226.22 315.07 226.22 336.22 221.81 336.22"/><g id="Group-9"><path id="CH" class="cls-8" d="M132.84,387.62c-5.59,0-9.14-3.67-9.14-10.79s3.55-11.09,9.14-11.09c3.8,0,6.26,1.61,7.75,4.88l-3.43,1.82a4.2,4.2,0,0,0-4.32-3.15c-3,0-4.89,2.15-4.89,5.76v3.33c0,3.63,1.92,5.7,4.89,5.7a4.72,4.72,0,0,0,4.59-3.37l3.25,1.91A8.15,8.15,0,0,1,132.84,387.62Zm24.13-.36v-8.94h-8.85v8.94h-4V366.11h4v8.66H157v-8.66h4v21.15Z"/><path id="_3" data-name="3" class="cls-8" d="M168.32,383.68H170c1.91,0,2.8-.88,2.8-2.08v-.16a2.18,2.18,0,0,0-2.47-2.21,4,4,0,0,0-3.43,2l-2-1.81a6.28,6.28,0,0,1,5.54-2.78c3.38,0,5.68,1.68,5.68,4.36a3.77,3.77,0,0,1-3.21,3.8V385a4,4,0,0,1,3.5,4.07c0,2.94-2.47,4.9-6.16,4.9a6.44,6.44,0,0,1-5.95-3.11l2.32-1.77a3.86,3.86,0,0,0,3.63,2.3c1.84,0,2.87-1,2.87-2.51v-.17c0-1.53-1.12-2.34-3.11-2.34h-1.66Z"/></g><g id="Group-9-Copy"><path id="CH-2" data-name="CH" class="cls-8" d="M262.36,135.65c-5.59,0-9.15-3.67-9.15-10.79s3.56-11.09,9.15-11.09c3.8,0,6.26,1.6,7.74,4.88l-3.43,1.82a4.2,4.2,0,0,0-4.31-3.16c-3,0-4.89,2.16-4.89,5.76v3.33c0,3.64,1.91,5.7,4.89,5.7a4.71,4.71,0,0,0,4.59-3.36l3.25,1.91A8.15,8.15,0,0,1,262.36,135.65Zm24.12-.37v-8.94h-8.84v8.94h-4V114.13h4v8.67h8.84v-8.67h4v21.15Z"/><path id="_3-2" data-name="3" class="cls-8" d="M297.84,131.71h1.65c1.92,0,2.81-.88,2.81-2.08v-.17a2.18,2.18,0,0,0-2.47-2.2,4,4,0,0,0-3.43,2l-2-1.82a6.31,6.31,0,0,1,5.54-2.77c3.38,0,5.69,1.67,5.69,4.35a3.77,3.77,0,0,1-3.22,3.8V133a4,4,0,0,1,3.5,4.06c0,3-2.47,4.91-6.16,4.91a6.47,6.47,0,0,1-6-3.11l2.33-1.77a3.85,3.85,0,0,0,3.62,2.3c1.85,0,2.88-1,2.88-2.52v-.16c0-1.54-1.13-2.35-3.12-2.35h-1.65Z"/></g><g id="Group-8"><polygon id="H" class="cls-8" points="430.07 425.53 430.07 416.59 421.23 416.59 421.23 425.53 417.22 425.53 417.22 404.38 421.23 404.38 421.23 413.05 430.07 413.05 430.07 404.38 434.08 404.38 434.08 425.53 430.07 425.53"/><path id="C" class="cls-8" d="M462.23,425.89c-5.59,0-9.15-3.66-9.15-10.78S456.64,404,462.23,404c3.79,0,6.25,1.6,7.74,4.88l-3.43,1.81a4.2,4.2,0,0,0-4.31-3.15c-3,0-4.9,2.15-4.9,5.76v3.33c0,3.64,1.92,5.7,4.9,5.7a4.7,4.7,0,0,0,4.58-3.36l3.25,1.91A8.14,8.14,0,0,1,462.23,425.89Z"/><path id="_3-copy" data-name="3-copy" class="cls-8" d="M441.74,422h1.66c1.91,0,2.8-.89,2.8-2.08v-.17a2.18,2.18,0,0,0-2.47-2.2,4,4,0,0,0-3.43,2l-2-1.82a6.3,6.3,0,0,1,5.54-2.77c3.38,0,5.68,1.67,5.68,4.35a3.77,3.77,0,0,1-3.21,3.8v.15a4,4,0,0,1,3.5,4.06c0,2.95-2.47,4.91-6.17,4.91a6.46,6.46,0,0,1-5.94-3.11l2.32-1.77a3.85,3.85,0,0,0,3.62,2.29c1.85,0,2.88-.95,2.88-2.51v-.17c0-1.53-1.12-2.34-3.11-2.34h-1.66Z"/></g><polygon id="N-Copy" class="cls-8" points="420.08 358.55 413.7 347.7 411.51 343.31 411.42 343.31 411.42 358.55 407.62 358.55 407.62 337.4 412.03 337.4 418.41 348.25 420.6 352.64 420.69 352.64 420.69 337.4 424.48 337.4 424.48 358.55 420.08 358.55"/><polygon id="N-Copy-2" class="cls-8" points="420.08 238.94 413.7 228.09 411.51 223.7 411.42 223.7 411.42 238.94 407.62 238.94 407.62 217.79 412.03 217.79 418.41 228.64 420.6 233.03 420.69 233.03 420.69 217.79 424.48 217.79 424.48 238.94 420.08 238.94"/><polygon id="N-Copy-3" class="cls-8" points="284.17 223 277.79 212.15 275.6 207.75 275.51 207.75 275.51 223 271.71 223 271.71 201.84 276.12 201.84 282.5 212.69 284.69 217.09 284.78 217.09 284.78 201.84 288.57 201.84 288.57 223 284.17 223"/></g></g><g class="cls-9"><g class="cls-3"><path class="cls-4" d="M712.61,547.38q-12.36,0-24.75-1.14A268.45,268.45,0,0,1,476,151.91,268.43,268.43,0,1,1,712.61,547.38Zm.07-535.69a265.93,265.93,0,1,0,24.61,1.13Q725,11.7,712.68,11.69Z"/><path class="cls-4" d="M708.13,538.67q-10.57,0-21.13-.83a244.88,244.88,0,0,1-175.9-94.3,276.47,276.47,0,0,1-57.51-190.4A244.89,244.89,0,0,1,547.9,77.23a276.48,276.48,0,0,1,190.39-57.5A244.89,244.89,0,0,1,914.2,114a276.48,276.48,0,0,1,57.5,190.39,244.83,244.83,0,0,1-94.3,175.91,277.18,277.18,0,0,1-169.27,58.33Zm9-518.27a275.59,275.59,0,0,0-168.35,58,243.37,243.37,0,0,0-93.73,174.85,275,275,0,0,0,57.19,189.35,243.32,243.32,0,0,0,174.84,93.73,274.88,274.88,0,0,0,189.35-57.18A243.37,243.37,0,0,0,970.2,304.31,274.92,274.92,0,0,0,913,115,243.37,243.37,0,0,0,738.17,21.23Q727.69,20.41,717.17,20.4Z"/><path class="cls-4" d="M703.29,530c-38.86,0-77.19-8.47-111-26.62h0c-115.46-61.9-166.1-229.57-104.2-345S717.6-7.72,833.06,54.18s166.09,229.56,104.2,345C893.51,480.79,796.92,530,703.29,530ZM592.94,502.07c54.65,29.3,124.42,34.49,191.44,14.25s122.26-63.19,151.55-117.83,34.49-124.42,14.25-191.44S887,84.79,832.35,55.5,707.93,21,640.91,41.25,518.65,104.44,489.36,159.08,454.87,283.5,475.11,350.52,538.3,472.78,592.94,502.07Z"/><path class="cls-4" d="M698.2,521.35q-6.51,0-12.92-.32c-33.44-1.68-63.66-9.64-89.81-23.66s-49.51-34.78-69.42-61.7c-18.7-25.29-33.68-55.52-43.33-87.45s-13.9-65.39-12.32-96.8c1.69-33.44,9.65-63.66,23.67-89.81s34.77-49.51,61.7-69.42c25.28-18.71,55.52-33.69,87.44-43.33S708.61,35,740,36.54c33.45,1.68,63.66,9.65,89.81,23.67s49.51,34.77,69.43,61.7c18.7,25.28,33.68,55.51,43.32,87.44s13.9,65.39,12.32,96.8c-1.68,33.45-9.64,63.66-23.66,89.81s-34.78,49.51-61.7,69.43c-25.29,18.7-55.52,33.68-87.45,43.32A292.8,292.8,0,0,1,698.2,521.35ZM727.09,37.72A291.27,291.27,0,0,0,643.64,50.3c-31.76,9.59-61.84,24.49-87,43.09-26.74,19.78-47.36,43-61.27,68.93s-21.82,56-23.49,89.18c-1.57,31.23,2.67,64.53,12.26,96.29s24.49,61.84,43.09,87c19.78,26.75,43,47.36,68.93,61.27s56,21.82,89.18,23.49c31.23,1.57,64.53-2.67,96.29-12.26s61.84-24.49,87-43.09c26.75-19.78,47.36-43,61.27-68.93s21.82-55.95,23.49-89.17c1.57-31.24-2.67-64.54-12.26-96.3s-24.49-61.84-43.09-87c-19.78-26.74-43-47.36-68.92-61.27s-56-21.82-89.18-23.49Q733.57,37.72,727.09,37.72Z"/><path class="cls-4" d="M693.27,512.78q-4.46,0-8.85-.16c-32.64-1.13-61.48-8.29-85.72-21.28s-46.17-33-65.18-59.61c-17.77-24.83-32.21-54.65-41.75-86.24s-14-64.42-13-94.93c1.13-32.64,8.29-61.48,21.29-85.72s33-46.17,59.6-65.18c24.83-17.77,54.65-32.21,86.24-41.75s64.42-14,94.93-13c32.64,1.13,61.49,8.29,85.72,21.28s46.17,33.05,65.18,59.61c17.77,24.83,32.21,54.65,41.75,86.24s14,64.42,13,94.93c-1.14,32.64-8.3,61.48-21.29,85.72s-33.05,46.17-59.61,65.18c-24.83,17.77-54.65,32.21-86.24,41.75A301.31,301.31,0,0,1,693.27,512.78ZM732,46.29a299.49,299.49,0,0,0-85.66,13.06c-31.43,9.49-61.1,23.85-85.79,41.53-26.37,18.88-46.28,40.64-59.16,64.67s-20,52.65-21.11,85.06c-1.06,30.35,3.4,63,12.9,94.45s23.85,61.1,41.53,85.8c18.88,26.37,40.64,46.27,64.67,59.15s52.65,20,85.06,21.12c30.36,1,63-3.41,94.45-12.91s61.1-23.85,85.8-41.53C891.09,437.81,911,416.06,923.87,392s20-52.65,21.12-85.06c1-30.35-3.41-63-12.91-94.45s-23.85-61.1-41.53-85.8c-18.88-26.37-40.63-46.27-64.67-59.15s-52.65-20-85.06-21.11Q736.46,46.29,732,46.29Z"/><path class="cls-4" d="M688.44,504.27c-33,0-63-6.35-86.51-19-43.38-23.26-81.18-76.55-101.11-142.55s-17.95-131.31,5.31-174.69S582.67,86.89,648.67,67,780,49,823.36,72.26s81.18,76.55,101.11,142.55,17.95,131.31-5.3,174.69-76.55,81.18-142.55,101.11C746.4,499.74,716.33,504.27,688.44,504.27ZM602.64,484c43,23.08,107.92,25,173.55,5.2s118.58-57.35,141.66-100.39,25-107.91,5.19-173.54S865.69,96.66,822.65,73.59s-107.91-25-173.54-5.2S530.52,125.74,507.45,168.78s-25,107.91-5.19,173.55S559.6,460.91,602.64,484Z"/><path class="cls-4" d="M682.85,495.82h-.15c-30.57,0-57.39-5.74-77.53-16.54s-39.76-30-56.7-55.42C532.56,399.94,519.21,371,509.87,340s-14.27-62.46-14.25-91.19c0-30.57,5.73-57.39,16.53-77.54s30-39.75,55.43-56.69c23.91-15.91,52.9-29.26,83.83-38.6s62.46-14.25,91.18-14.26c30.58,0,57.39,5.74,77.54,16.54s39.75,30,56.69,55.43c15.92,23.91,29.27,52.9,38.61,83.82s14.26,62.46,14.25,91.19c0,30.58-5.74,57.39-16.54,77.54S883.17,426,857.72,443c-23.92,15.92-52.9,29.26-83.83,38.61S711.54,495.82,682.85,495.82ZM742.44,63.26c-28.54,0-59.86,4.9-90.6,14.18S592.2,100,568.41,115.86c-25.25,16.8-44.25,36.22-54.93,56.15s-16.35,46.5-16.36,76.83c0,28.58,4.89,60,14.18,90.75s22.59,59.64,38.42,83.43c16.8,25.26,36.22,44.25,56.15,54.93s46.5,16.35,76.84,16.37h.14c28.54,0,59.87-4.91,90.6-14.19s59.64-22.58,83.44-38.42c25.25-16.8,44.24-36.22,54.93-56.15s16.34-46.5,16.36-76.83c0-28.58-4.89-60-14.19-90.75s-22.58-59.64-38.42-83.43c-16.8-25.25-36.22-44.25-56.15-54.93s-46.5-16.35-76.83-16.36Z"/><path class="cls-4" d="M677.45,487.45c-27.87,0-51.67-4.88-69.05-14.2C590.11,463.44,572,445,556,419.92c-15-23.46-27.8-52-37-82.63S504.52,275.82,504,248c-.54-29.77,4.36-55.16,14.16-73.45s28.25-36.43,53.34-52.46c23.45-15,52-27.79,82.62-37s61.48-14.39,89.31-14.89c29.76-.54,55.16,4.36,73.45,14.16s36.42,28.25,52.45,53.33c15,23.46,27.79,52,37,82.63s14.39,61.47,14.89,89.31c.54,29.76-4.36,55.16-14.16,73.44s-28.25,36.43-53.33,52.46c-23.46,15-52,27.79-82.62,37s-61.48,14.39-89.31,14.89C680.37,487.44,678.9,487.45,677.45,487.45Zm-68.34-15.52c18.06,9.68,43.2,14.51,72.71,14,27.69-.5,58.44-5.63,88.9-14.83s58.91-21.95,82.25-36.86c24.87-15.89,43.13-33.83,52.82-51.89s14.52-43.21,14-72.72c-.5-27.69-5.63-58.43-14.83-88.9S883,161.8,868.08,138.46c-15.88-24.87-33.83-43.13-51.89-52.81s-43.21-14.52-72.72-14c-27.69.5-58.43,5.63-88.9,14.83s-58.9,22-82.25,36.86c-24.87,15.89-43.13,33.83-52.81,51.9s-14.52,43.2-14,72.71c.5,27.69,5.63,58.44,14.83,88.9s21.95,58.91,36.86,82.25C573.1,444,591,462.24,609.11,471.93Z"/><path class="cls-4" d="M672.15,479.18c-24.65,0-45.61-4-60.52-12-32.09-17.21-64.15-68-83.67-132.66s-21-124.7-3.75-156.79,68-64.15,132.66-83.67,124.7-20.95,156.79-3.75,64.15,68,83.67,132.66,20.95,124.7,3.75,156.79S833,444,768.42,463.47C733.83,473.92,700.54,479.18,672.15,479.18ZM612.34,465.9c31.75,17,91.39,15.54,155.65-3.87s114.74-51.18,131.77-82.94,15.54-91.39-3.87-155.65S844.71,108.7,813,91.68,721.56,76.13,657.3,95.54s-114.74,51.18-131.76,82.94S510,269.87,529.4,334.13,580.58,448.87,612.34,465.9Z"/><path class="cls-4" d="M666.26,471c-21.69,0-39.29-3.35-51.4-9.84-14.59-7.83-29.8-24.82-44-49.15-13.12-22.55-24.84-50.28-33.88-80.21s-14.63-59.52-16.18-85.56c-1.67-28.1,1.59-50.67,9.41-65.27s24.82-29.8,49.15-44c22.55-13.13,50.28-24.84,80.21-33.88S719.12,88.52,745.16,87c28.1-1.67,50.68,1.59,65.27,9.41s29.8,24.82,44,49.15c13.13,22.55,24.84,50.28,33.88,80.21s14.64,59.52,16.18,85.56c1.67,28.1-1.59,50.67-9.41,65.27s-24.82,29.8-49.15,44c-22.54,13.13-50.28,24.84-80.21,33.88s-59.51,14.64-85.56,16.18Q673,471,666.26,471Zm93-383c-79.52,0-201.67,45.19-227.65,93.66-7.7,14.35-10.89,36.65-9.24,64.47,1.54,25.93,7.11,55.4,16.12,85.22s20.67,57.44,33.74,79.88c14,24.09,29,40.89,43.38,48.59s36.65,10.88,64.48,9.23C706,467.56,735.44,462,765.26,453s57.44-20.68,79.88-33.75c24.09-14,40.89-29,48.59-43.38,32.66-60.92-23.08-245.49-84-278.16C797.27,91,779.65,88.05,759.22,88.05Z"/><path class="cls-4" d="M660.64,463c-18.35,0-32.86-2.65-42.55-7.84h0c-12.76-6.84-26.5-23.12-39.72-47.06-12.2-22.09-23.37-49.41-32.31-79s-14.76-58.53-16.82-83.68c-2.24-27.27.19-48.42,7-61.19s23.12-26.5,47.07-39.72c22.08-12.2,49.4-23.38,79-32.31S720.87,97.44,746,95.38c27.27-2.24,48.43.19,61.19,7s26.5,23.12,39.73,47.06c12.2,22.09,23.37,49.41,32.31,79S894,287,896.06,312.15c2.24,27.27-.2,48.42-7,61.19S865.9,399.84,842,413.06c-22.09,12.2-49.41,23.38-79,32.32s-58.53,14.75-83.68,16.81Q669.41,463,660.64,463ZM764.69,96.07c-5.8,0-12,.26-18.55.8-25,2.06-53.87,7.85-83.37,16.76s-56.71,20-78.71,32.19c-23.69,13.09-39.76,26.61-46.46,39.12s-9.08,33.38-6.87,60.36c2.06,25,7.86,53.87,16.76,83.36s20,56.72,32.19,78.71c13.09,23.69,26.62,39.76,39.12,46.47s33.38,9.07,60.36,6.86c25-2.06,53.87-7.85,83.36-16.76s56.72-20,78.71-32.19c23.7-13.09,39.76-26.61,46.47-39.12s9.08-33.38,6.86-60.36c-2.06-25-7.85-53.87-16.76-83.36s-20-56.72-32.19-78.71c-13.08-23.69-26.61-39.76-39.12-46.47C797,98.66,782.76,96.07,764.69,96.07Z"/><path class="cls-4" d="M654.9,455.18c-13.86,0-25.62-1.78-33.57-6.05-13.82-7.41-26.93-28.55-35.49-45-11.11-21.31-22-48.94-30.74-77.79-14.5-48-26.56-113.23-12.8-138.89,7.41-13.82,28.55-26.93,45-35.49,21.32-11.11,48.94-22,77.79-30.74,48-14.5,113.23-26.56,138.9-12.8,13.82,7.41,26.92,28.55,35.48,45,11.11,21.32,22,48.94,30.74,77.79,14.5,48,26.56,113.23,12.8,138.89-7.41,13.82-28.55,26.93-45,35.49-21.32,11.11-48.95,22-77.79,30.74C727.08,446.34,685.77,455.18,654.9,455.18ZM770.18,103.93A222.36,222.36,0,0,0,747,105.27c-23.82,2.54-52.77,8.72-81.53,17.41S609.21,142.24,588,153.31c-23.29,12.14-38.62,24.19-44.35,34.86s-7.27,30.12-4.48,56.24c2.53,23.81,8.72,52.76,17.4,81.52s19.56,56.29,30.63,77.53c12.14,23.29,24.19,38.63,34.87,44.35s30.11,7.27,56.23,4.49c23.81-2.54,52.76-8.72,81.52-17.41s56.29-19.56,77.53-30.63c23.29-12.14,38.63-24.19,44.35-34.86s7.27-30.12,4.49-56.24c-2.54-23.81-8.72-52.76-17.41-81.52s-19.56-56.29-30.63-77.53c-12.13-23.29-24.19-38.63-34.86-44.35C796,105.89,784.79,103.93,770.18,103.93Z"/><path class="cls-4" d="M650,447.45c-10.09,0-19.42-1.12-25.44-4.35-11.53-6.18-23.35-26.73-31.25-42.89-10.19-20.87-20.55-48.06-29.16-76.58s-15-56.9-18.1-79.92c-2.37-17.82-3.9-41.49,2.28-53s26.74-23.36,42.89-31.25c20.87-10.19,48.06-20.55,76.58-29.16s56.9-15,79.92-18.1c17.82-2.37,41.49-3.9,53,2.28s23.36,26.74,31.25,42.89c10.19,20.87,20.55,48.06,29.16,76.58s15,56.9,18.1,79.92c2.37,17.82,3.9,41.49-2.28,53s-26.73,23.36-42.89,31.25c-20.87,10.19-48.06,20.55-76.58,29.16s-56.89,15-79.92,18.1A216.09,216.09,0,0,1,650,447.45Zm-24.73-5.67c19.67,10.54,80.37-.41,131.79-15.94s108-40,118.58-59.68-.4-80.36-15.94-131.79-40-108-59.68-118.58-80.36.41-131.79,15.94-108,40-118.58,59.68.41,80.36,15.94,131.79S605.6,431.23,625.27,441.78Z"/><path class="cls-4" d="M645.37,440c-7.77,0-13.84-.9-17.58-2.9C596.73,420.42,537.71,225,554.36,193.93S766.44,103.85,797.5,120.5c16.08,8.62,39,64.56,54.59,116.17s27.46,110.89,18.84,127-64.56,39-116.17,54.59C715.15,430.2,671,440,645.37,440Zm-16.87-4.22c13.59,7.29,64.16-.33,125.83-18.95s108-40.27,115.28-53.87-.33-64.16-19-125.82-40.27-108-53.87-115.29-64.16.33-125.82,19-108,40.27-115.29,53.86.33,64.16,19,125.83S614.91,428.46,628.5,435.75Z"/><path class="cls-4" d="M642,432.8q-7.62,0-10.93-1.76h0c-5.59-3-13.25-16-22.76-38.72-8.36-20-17.6-46.3-26-74.15S567,263.27,562.87,242c-4.65-24.16-5.48-39.25-2.48-44.85s16-13.25,38.72-22.76c20-8.36,46.3-17.6,74.15-26s54.91-15.3,76.16-19.38c24.16-4.65,39.25-5.48,44.85-2.48s13.26,16,22.76,38.72c8.37,20,17.6,46.3,26,74.15s15.29,54.9,19.38,76.16c4.64,24.16,5.47,39.25,2.47,44.85s-16,13.26-38.72,22.76c-20,8.36-46.3,17.6-74.15,26s-54.9,15.3-76.16,19.39C661.18,431.39,649.84,432.8,642,432.8Zm-10.22-3.08c3.64,1.95,14.2,3.07,43.86-2.63,21.2-4.07,48.2-10.94,76-19.34s54.09-17.62,74-26c27.86-11.67,36-18.46,38-22.09,12.1-22.57-47.45-219.75-70-231.85s-219.75,47.45-231.85,70S609.16,417.62,631.73,429.72Z"/></g></g></svg>