<svg id="Layer_1" data-name="Layer 1" xmlns="http://www.w3.org/2000/svg" xmlns:xlink="http://www.w3.org/1999/xlink" viewBox="0 0 720 560"><defs><style>.cls-1,.cls-3{fill:none;}.cls-2{clip-path:url(#clip-path);}.cls-3{stroke:#4589ff;stroke-miterlimit:10;}.cls-4{fill:#4589ff;}</style><clipPath id="clip-path"><rect class="cls-1" width="720" height="560"/></clipPath></defs><title>Artboard 7</title><g class="cls-2"><polygon class="cls-3" points="608.96 437.8 405.01 304.65 201.06 171.49 334.22 -32.45 467.37 -236.4 671.32 -103.25 875.27 29.91 742.11 233.86 608.96 437.8"/><path class="cls-3" d="M470-223.82c1.85-.39,195.81,125.25,197.52,126.37S862.3,30.69,862.69,32.55,737.44,228.36,736.32,230.07s-128.15,194.77-130,195.16S410.51,300,408.79,298.86,214,170.71,213.64,168.85,338.89-27,340-28.67,468.16-223.43,470-223.82Z"/><path class="cls-3" d="M472.66-211.25C476.37-212,660.33-93.9,663.76-91.66S849.33,31.48,850.11,35.19,732.77,222.87,730.53,226.29,607.39,411.87,603.67,412.65,416,295.3,412.57,293.06,227,169.92,226.22,166.21,343.56-21.46,345.8-24.89,468.94-210.47,472.66-211.25Z"/><path class="cls-3" d="M475.3-198.67C480.87-199.84,654.84-89.23,660-85.87S836.37,32.26,837.54,37.83,728.09,217.37,724.74,222.51,606.6,398.9,601,400.07,421.5,290.63,416.35,287.27,240,169.14,238.8,163.57,348.24-16,351.59-21.11,469.73-197.5,475.3-198.67Z"/><path class="cls-3" d="M477.94-186.09c7.42-1.56,171.4,101.54,178.26,106S823.4,33.05,825,40.47,723.42,211.88,719,218.73,605.82,385.94,598.39,387.49,427,286,420.14,281.48,252.93,168.35,251.37,160.93s101.54-171.4,106-178.26S470.51-184.53,477.94-186.09Z"/><path class="cls-3" d="M480.58-173.52c9.28-1.94,163.27,93.64,171.83,99.23s158,108.13,160,117.41S718.75,206.38,713.15,215,605,373,595.75,374.92s-163.27-93.64-171.83-99.23-158-108.12-160-117.4S357.58-5,363.18-13.55,471.3-171.57,480.58-173.52Z"/><path class="cls-3" d="M483.22-160.94c11.14-2.34,155.13,85.73,165.41,92.44S797.47,34.62,799.8,45.76s-85.73,155.13-92.44,165.41S604.25,360,593.11,362.34,438,276.61,427.7,269.9,278.86,166.78,276.53,155.65,362.26.52,369-9.77,472.08-158.6,483.22-160.94Z"/><path class="cls-3" d="M485.86-148.36c13-2.73,147,77.82,159,85.66S784.5,35.41,787.23,48.4s-77.83,147-85.66,159S603.46,347,590.47,349.76s-147-77.82-159-85.65S291.83,166,289.1,153,366.93,6,374.76-6,472.87-145.63,485.86-148.36Z"/><path class="cls-3" d="M488.5-135.78c14.85-3.12,138.86,69.92,152.57,78.87S771.53,36.19,774.65,51,704.73,189.9,695.78,203.61s-93.1,130.46-107.95,133.58S449,267.26,435.26,258.31,304.8,165.21,301.68,150.36,371.6,11.5,380.55-2.2,473.65-132.67,488.5-135.78Z"/><path class="cls-3" d="M491.14-123.21c16.71-3.51,130.73,62,146.15,72.09S758.57,37,762.07,53.68,700.06,184.4,690,199.82s-88.1,121.28-104.8,124.79-130.73-62-146.15-72.09-121.27-88.09-124.78-104.8S376.27,17,386.34,1.58,474.44-119.7,491.14-123.21Z"/><path class="cls-3" d="M493.79-110.63c18.56-3.9,122.58,54.11,139.72,65.3S745.6,37.76,749.5,56.32,695.38,178.91,684.2,196,601.11,308.13,582.55,312,460,257.92,442.82,246.73s-112.09-83.09-116-101.65S381,22.49,392.14,5.36,475.22-106.73,493.79-110.63Z"/><path class="cls-3" d="M496.43-98c20.41-4.29,114.45,46.21,133.3,58.51S732.63,38.55,736.92,59s-46.21,114.45-58.52,133.3-78.08,102.91-98.5,107.2-114.45-46.21-133.3-58.52-102.9-78.08-107.19-98.5S385.62,28,397.93,9.14,476-93.77,496.43-98Z"/><path class="cls-3" d="M499.07-85.48C521.34-90.15,605.38-47.17,626-33.75s93.72,73.08,98.39,95.35S686,167.92,672.61,188.48s-73.07,93.72-95.35,98.4S471,248.57,450.39,235.15,356.67,162.07,352,139.8s38.3-106.32,51.73-126.88S476.8-80.8,499.07-85.48Z"/><path class="cls-3" d="M501.71-72.9c24.13-5.07,98.18,30.4,120.45,45s84.54,68.07,89.61,92.19-30.4,98.18-44.95,120.46-68.07,84.53-92.2,89.6-98.18-30.4-120.45-44.94-84.54-68.07-89.61-92.2S395,39,409.51,16.7,477.58-67.83,501.71-72.9Z"/><path class="cls-3" d="M504.35-60.32c26-5.46,90,22.49,114,38.16s75.35,63.06,80.81,89.05-22.5,90-38.16,114-63.06,75.35-89,80.8-90-22.49-114-38.15-75.35-63.07-80.81-89,22.5-90.05,38.16-114S478.37-54.87,504.35-60.32Z"/><path class="cls-3" d="M507-47.75c27.84-5.84,81.91,14.6,107.61,31.38s66.17,58.06,72,85.9S672,151.43,655.24,177.14s-58.06,66.16-85.9,72-81.91-14.59-107.61-31.38-66.16-58.05-72-85.89S404.31,50,421.09,24.27,479.15-41.9,507-47.75Z"/><path class="cls-3" d="M509.63-35.17c29.7-6.24,73.77,6.69,101.19,24.59s57,53.05,63.22,82.75-6.69,73.77-24.59,101.19-53.05,57-82.75,63.21S492.93,229.88,465.51,212s-57-53-63.21-82.75S409,55.46,426.88,28.05,479.94-28.93,509.63-35.17Z"/><path class="cls-3" d="M643.66,169.57a126,126,0,1,1,17.8-94.76A125.58,125.58,0,0,1,643.66,169.57Z"/><path class="cls-4" d="M258.67,781.89a253.89,253.89,0,0,1-136.86-40.08c-57-36.34-96.31-92.47-110.67-158.08A247.64,247.64,0,0,1,45.77,394.47C82.46,338,139.15,299.11,205.41,284.89a254.17,254.17,0,0,1,191.13,34.29c57,36.33,96.31,92.47,110.67,158.07a247.63,247.63,0,0,1-34.63,189.26l-.42-.26.42.26C435.89,723,379.19,761.88,312.94,776.1A258.81,258.81,0,0,1,258.67,781.89Zm1-501.8a257.39,257.39,0,0,0-54.06,5.76C139.63,300,83.16,338.78,46.61,395A246.64,246.64,0,0,0,12.12,583.52C26.42,648.87,65.57,704.79,122.35,741a253.22,253.22,0,0,0,190.38,34.15c66-14.17,122.46-52.93,159-109.15a246.62,246.62,0,0,0,34.49-188.52C491.93,412.12,452.78,356.2,396,320A252.86,252.86,0,0,0,259.68,280.09Z"/><path class="cls-4" d="M255.35,773.28c-45.42,0-90.8-11.85-130-36.86C14.52,665.81-20.1,507.64,51.21,397.94l.42.27-.42-.27a232.4,232.4,0,0,1,67.94-67.76,263.37,263.37,0,0,1,183.71-39.43A235.1,235.1,0,0,1,393,324.56a232.65,232.65,0,0,1,68.43,67.28,256.74,256.74,0,0,1,39.82,181.91,230.17,230.17,0,0,1-34.15,89.3C421.09,733.88,338.15,773.28,255.35,773.28Zm7.41-484.7a262.79,262.79,0,0,0-55.25,5.93A257.46,257.46,0,0,0,119.71,331a231.56,231.56,0,0,0-67.66,67.47c-71,109.26-36.54,266.79,73.8,337.12,39.08,24.91,84.28,36.71,129.52,36.71,82.47,0,165.06-39.23,210.93-109.79a228.91,228.91,0,0,0,34-88.92,255.72,255.72,0,0,0-39.67-181.2,231.5,231.5,0,0,0-68.13-67,234,234,0,0,0-89.8-33.67A254.44,254.44,0,0,0,262.76,288.58Z"/><path class="cls-4" d="M251.94,764.93c-45.14,0-88.15-11.6-123.13-33.9C24.71,664.68-10.36,504.49,56.65,401.41S285.44,263.6,389.54,330c49.58,31.6,86.1,86.66,100.2,151.05s3.87,129.48-28,178.58-87.52,85.26-152.55,99.21A272.32,272.32,0,0,1,251.94,764.93ZM57.07,401.67l.42.27C-9.24,504.59,25.68,664.12,129.35,730.2c49.36,31.46,114.82,41.53,179.59,27.63S429.08,707.92,460.86,659s41.94-113.69,27.9-177.83-50.4-119-99.76-150.43c-103.67-66.07-264.78-31.49-331.51,71.16Z"/><path class="cls-4" d="M247.81,756.58c-43.25,0-83.54-10.57-115.5-30.94-46.28-29.5-80.89-83.27-95-147.53S32.3,450.7,62.09,404.87s84.1-80.1,149-94,128.66-5,174.94,24.5,80.9,83.28,95,147.54,5.05,127.4-24.75,173.23-84.09,80.1-149,94A283.81,283.81,0,0,1,247.81,756.58ZM62.51,405.14l.42.27C33.28,451,24.31,513.89,38.33,577.9s48.46,117.55,94.52,146.91,109.56,38.24,174.2,24.37,118.72-48,148.37-93.61S494,547.09,480,483.09s-48.47-117.56-94.53-146.92S275.94,297.93,211.3,311.81s-118.72,48-148.37,93.6Z"/><path class="cls-4" d="M244.4,748.08c-41.58,0-79.9-9.54-108.58-27.82-42.36-27-75.9-80.84-89.73-144s-5.82-126,21.44-167.89l.42.27-.42-.27C94.79,366.4,149.17,333.19,213,319.49s127.2-5.76,169.55,21.24,75.9,80.84,89.73,144,5.82,126-21.45,167.89-81.63,75.15-145.45,88.85A291.46,291.46,0,0,1,244.4,748.08ZM274,313.89a290.39,290.39,0,0,0-60.77,6.57C149.63,334.1,95.5,367.16,68.37,408.88S33.29,513.08,47.06,576s47.16,116.55,89.3,143.4,105.23,34.75,168.79,21.1S422.85,693.83,450,652.11,485.06,547.9,471.28,485,424.12,368.42,382,341.56C353.47,323.38,315.33,313.89,274,313.89Z"/><path class="cls-4" d="M239.84,739.8c-39.37,0-74.77-8.52-100.52-24.93-39.11-24.93-70.69-77.45-84.5-140.51S47.8,450.53,73,411.81s78.22-70,141.91-83.67,125.05-6.95,164.15,18,70.69,77.45,84.49,140.51,7,123.82-18.15,162.54-78.21,70-141.9,83.67A304.36,304.36,0,0,1,239.84,739.8Zm38.69-417.63a304,304,0,0,0-63.44,6.94c-63.43,13.62-116.25,44.73-141.27,83.24s-31.77,99-18,161.8S101,689.25,139.86,714c25.59,16.32,60.8,24.78,100,24.78a303.29,303.29,0,0,0,63.44-6.94c63.43-13.61,116.24-44.73,141.27-83.23s31.77-99,18-161.8S417.37,371.73,378.49,347C352.9,330.64,317.68,322.17,278.53,322.17Z"/><path class="cls-4" d="M235,731.56c-37,0-69.36-7.51-92.22-22.08-35.85-22.85-65.48-74.07-79.26-137s-8.22-121.7,14.86-157.2,74.8-64.84,138.35-78.49,122.9-8.14,158.76,14.71,65.48,74.07,79.26,137S463,610.2,439.93,645.71s-74.8,64.84-138.35,78.48A319.4,319.4,0,0,1,235,731.56Zm48.29-401.15A318.26,318.26,0,0,0,217,337.76c-63.3,13.59-114.79,42.77-137.72,78.05S50.82,509.59,64.54,572.27s43.19,113.66,78.82,136.38,94.7,28.16,158,14.57,114.78-42.76,137.72-78.05,28.44-93.77,14.72-156.46S410.62,375.05,375,352.34C352.29,337.87,320.08,330.41,283.33,330.41Z"/><path class="cls-4" d="M230.67,723.21c-34.65,0-64.56-6.51-84.35-19.12-32.11-20.47-60.48-71.62-74-133.49s-9.12-120,11.56-151.85,72.33-59.89,134.8-73.3,121.25-9,153.36,11.44,60.49,71.62,74,133.49,9.11,120-11.56,151.86-72.33,59.89-134.81,73.3A331.63,331.63,0,0,1,230.67,723.21Zm57-384.45a331.32,331.32,0,0,0-68.83,7.65c-62.23,13.36-113.65,41.28-134.18,72.87s-24.91,89.5-11.43,151.11S115,682.92,146.86,703.26s90.38,24.67,152.61,11.31,113.64-41.28,134.18-72.87,24.91-89.49,11.42-151.11-41.68-112.53-73.59-132.86C351.85,345.21,322.15,338.76,287.71,338.76Z"/><path class="cls-4" d="M225.25,715.1c-31.76,0-58.4-5.55-75.42-16.4-28.92-18.43-55.28-68.23-68.8-130S70.68,450.85,89.3,422.21s68.91-54.73,131.26-68.11,119-10.25,148,8.18,55.28,68.23,68.79,130,10.35,117.89-8.26,146.52-68.91,54.73-131.26,68.12C272.14,712.39,247.45,715.1,225.25,715.1ZM89.72,422.48l.42.27C71.66,451.17,68.55,507,82,568.52s39.66,111.06,68.36,129.35,85.1,21.38,147.21,8,112.15-39.27,130.63-67.69S449.8,554,436.34,492.46s-39.66-111-68.36-129.35-85.11-21.37-147.21-8.05S108.61,394.33,90.14,422.75Z"/><path class="cls-4" d="M219.41,707c-1.8,0-3.59,0-5.36,0-26.58-.55-47.58-5.26-60.72-13.64S127.16,668,115.65,644.23C105,622.21,96,595.46,89.77,566.85s-9.3-56.62-8.8-81c.55-26.32,5.31-47.12,13.77-60.13s25.6-25.91,49.57-37.3c22.24-10.57,49.26-19.43,78.14-25.63s57.2-9.21,81.84-8.71c26.59.54,47.59,5.25,60.73,13.63s26.17,25.35,37.67,49.09c10.67,22,19.62,48.77,25.89,77.37s9.3,56.63,8.79,81c-.54,26.33-5.3,47.12-13.76,60.13S398,661.21,374,672.61C351.8,683.17,324.78,692,295.9,698.24,269.08,704,242.77,707,219.41,707Zm79.73-352c-74.72,0-177.58,31.25-203.56,71.21-16.41,25.25-18.27,79.06-4.83,140.42s37.62,109.59,63.12,125.84C168.55,701.84,192,706,219.2,706c74.73,0,177.59-31.25,203.57-71.22,35.43-54.5-3.25-231.18-58.29-266.26C349.8,359.14,326.33,355,299.14,355Z"/><path class="cls-4" d="M213.85,699c-25.31,0-45.46-3.71-57-11.07-22.17-14.14-45.07-62.4-58.32-122.95s-12.6-113.87,1.67-135.83,63-44.62,124.17-57.75,115-12.48,137.17,1.66,45.06,62.39,58.32,123,12.6,113.87-1.67,135.82-63,44.63-124.17,57.75C264.72,695.87,237.11,699,213.85,699ZM100.6,429.42l.42.27c-14.13,21.74-14.74,74.77-1.53,135.08s35.92,108.33,57.88,122.32,75.51,14.6,136.42,1.53S403.19,653,417.33,631.3s14.74-74.77,1.53-135.09S382.94,387.89,361,373.89s-75.51-14.6-136.42-1.52S115.16,407.94,101,429.69Z"/><path class="cls-4" d="M206.83,691.15c-20.46,0-37.1-2.62-46.5-8.61-9.83-6.27-20.2-21.67-30-44.55-8.87-20.72-17.07-47.32-23.1-74.89S97.56,508,97,485.47c-.67-24.84,2.33-43.11,8.66-52.85,26.79-41.21,210.78-80.7,252.39-54.18s81.5,208.71,54.72,249.92C392,660.27,277,691.15,206.83,691.15Zm104.4-320.44c-69.78,0-184.14,30.71-204.77,62.45-12.1,18.62-11.41,69.55,1.76,129.73s33.85,106.83,52.66,118.82c41.38,26.38,224.36-12.9,251-53.88s-13-222.17-54.41-248.55C348.13,373.32,331.58,370.71,311.23,370.71Z"/><path class="cls-4" d="M200.51,683.57c-17.47,0-30-2.18-36.67-6.42-8.2-5.22-17.24-19.84-26.15-42.28-8-20.23-15.74-46.39-21.71-73.64S106.1,507,105,485.29c-1.28-24.07.84-41.09,6.11-49.2s20-17.07,42.7-25.89c20.44-7.95,46.85-15.59,74.37-21.5s54.76-9.79,76.69-10.92c24.32-1.27,41.5.83,49.69,6.05s17.24,19.85,26.15,42.28c8,20.24,15.74,46.39,21.71,73.65s9.88,54.22,11,75.93c1.27,24.08-.84,41.09-6.12,49.21s-20,17.06-42.69,25.88c-20.44,8-46.85,15.59-74.38,21.5s-54.76,9.79-76.68,10.93C208.93,683.45,204.58,683.57,200.51,683.57ZM318.17,378.44c-25.59,0-59.29,4.68-89.82,11.23-49.71,10.67-105,29.32-116.45,46.95S106.19,511.8,117,561s29.61,104,47.42,115.3,75.92,5.66,125.62-5S395,642,406.44,624.36s5.72-75.18-5.05-124.39S371.77,396,354,384.67C347.1,380.29,334.24,378.44,318.17,378.44Z"/><path class="cls-4" d="M193.82,676.13c-12.27,0-21.69-1.31-26.48-4.37-14.46-9.21-31.83-63.1-42.62-112.41S107.2,453.87,116.5,439.56l.43.26-.43-.26c18-27.73,206.51-68.18,234.51-50.34,14.46,9.22,31.82,63.1,42.62,112.41s17.52,105.48,8.21,119.8-63.72,31.51-113.52,42.2C255,670.78,218.61,676.13,193.82,676.13ZM324.59,385.8c-24.61,0-61,5.37-94.35,12.52C180.64,409,126.5,426,117.35,440.09S114.94,510,125.7,559.14s28,102.73,42.18,111.79,70.63,2.38,120.23-8.27S391.85,635,401,620.89s2.4-69.94-8.35-119-28-102.72-42.18-111.79C345.8,387.08,336.6,385.8,324.59,385.8Z"/><path class="cls-4" d="M187.91,669c-8.19,0-14.18-.81-17.07-2.65-10.87-6.94-26.61-59.69-37.38-108.9S115,453.79,122,443h0c7-10.76,60.27-26.35,110-37s104.71-18.33,115.59-11.4,26.61,59.69,37.38,108.9S403.4,607.19,396.4,618s-60.28,26.35-110,37C249.92,662.81,210.55,669,187.91,669ZM330.46,392.88c-22.39,0-61.78,6.25-98.33,14.09C182.64,417.6,129.63,433,122.79,443.56h0c-6.85,10.53.91,64.7,11.64,113.71s26.32,101.49,36.95,108.27c2.71,1.73,8.42,2.5,16.31,2.5,51.56,0,196.48-33.1,207.87-50.62,13.13-20.19-28.2-209-48.6-222C344.18,393.67,338.39,392.88,330.46,392.88Z"/><path class="cls-4" d="M183.14,662.27c-4.37,0-7.41-.4-8.8-1.28-7.29-4.65-21.4-56.28-32.15-105.39s-19.49-101.89-14.8-109.11h0c4.69-7.22,56.83-21.19,106.43-31.83S336.71,395.35,344,400s21.4,56.27,32.15,105.38S395.65,607.27,391,614.49s-56.83,21.19-106.43,31.84C244.36,655,201.75,662.27,183.14,662.27ZM335.37,399.69c-16.47,0-54.61,5.9-101.34,15.93C175.6,428.16,132.1,441.08,128.23,447h0c-3.87,6,2.27,50.51,14.94,108.36s25.71,100.94,31.71,104.76c13.47,8.58,206.57-32.86,215.24-46.19s-33.2-204.55-46.66-213.13C342.26,400.06,339.5,399.69,335.37,399.69Z"/><path class="cls-4" d="M180.52,656a6,6,0,0,1-2.67-.37c-7.09-4.52-49.58-198.62-45-205.64h0c4.56-7,200.58-49.08,207.67-44.58S390.08,604,385.52,611c-2.73,4.2-65.95,18.73-102.88,26.66C249.16,644.86,193.73,656,180.52,656ZM133.67,450.5h0c-1.87,2.87,5.8,46.2,18.24,103s23.57,99.39,26.48,101.25,46.66-5.74,104-18.06,100.38-23.35,102.25-26.22-5.8-46.21-18.24-103S342.87,408.07,340,406.22s-46.66,5.74-104,18.06S135.54,447.62,133.67,450.5Z"/><path class="cls-4" d="M181.24,650.38l-.11-.48-43-196.58.48-.11L337.11,410.6l.11.48,43,196.59-.49.1Zm-42-196.3L182,649.21l197.06-42.3L336.34,411.78Z"/></g></svg>